<svg width="106" height="34" viewBox="0 0 106 34" fill="none" xmlns="http://www.w3.org/2000/svg">
<path d="M42.784 13.192C41.856 13.192 40.9973 13 40.208 12.616C39.4187 12.232 38.784 11.688 38.304 10.984L39.664 9.33601C40.4533 10.4347 41.4987 10.984 42.8 10.984C43.2907 10.984 43.696 10.8667 44.016 10.632C44.336 10.3973 44.496 10.0933 44.496 9.72001C44.496 9.22934 44.1387 8.81868 43.424 8.48801C43.3387 8.44534 42.9493 8.29068 42.256 8.02401C41.712 7.81068 41.248 7.59734 40.864 7.38401C39.616 6.66934 38.992 5.68801 38.992 4.44001C38.992 3.44801 39.3653 2.62668 40.112 1.97601C40.8693 1.31468 41.84 0.984011 43.024 0.984011C44.56 0.984011 45.856 1.51734 46.912 2.58401L45.648 4.31201C45.328 3.97068 44.928 3.70401 44.448 3.51201C43.9787 3.30934 43.5147 3.20801 43.056 3.20801C42.5867 3.20801 42.2133 3.31468 41.936 3.52801C41.6693 3.73068 41.536 4.00268 41.536 4.34401C41.536 4.80268 41.856 5.19201 42.496 5.51201L43.664 6.02401C44.3253 6.30134 44.8053 6.50934 45.104 6.64801C46.448 7.29868 47.12 8.28001 47.12 9.59201C47.12 10.648 46.72 11.512 45.92 12.184C45.12 12.856 44.0747 13.192 42.784 13.192ZM52.8871 13.192C51.5431 13.192 50.4338 12.7653 49.5591 11.912C48.6951 11.0693 48.2631 9.97601 48.2631 8.63201C48.2631 7.28801 48.7005 6.19468 49.5751 5.35201C50.4605 4.48801 51.5858 4.05601 52.9511 4.05601C53.8471 4.05601 54.6578 4.26934 55.3831 4.69601C56.1191 5.12268 56.6631 5.72001 57.0151 6.48801L55.2071 7.48001C54.6738 6.59468 53.9325 6.15201 52.9831 6.15201C52.2578 6.15201 51.6658 6.39201 51.2071 6.87201C50.7378 7.34134 50.5031 7.92801 50.5031 8.63201C50.5031 9.35734 50.7325 9.95468 51.1911 10.424C51.6605 10.8933 52.2418 11.128 52.9351 11.128C53.3938 11.128 53.8311 11.0053 54.2471 10.76C54.6631 10.5147 54.9671 10.2 55.1591 9.81601L56.9831 10.888C56.6098 11.592 56.0551 12.152 55.3191 12.568C54.5938 12.984 53.7831 13.192 52.8871 13.192ZM60.9278 1.91201C60.9278 2.30668 60.7944 2.63734 60.5278 2.90401C60.2611 3.17068 59.9304 3.30401 59.5358 3.30401C59.1411 3.30401 58.8104 3.17068 58.5438 2.90401C58.2771 2.63734 58.1438 2.30668 58.1438 1.91201C58.1438 1.51734 58.2771 1.19201 58.5438 0.936012C58.8104 0.669345 59.1411 0.536011 59.5358 0.536011C59.9304 0.536011 60.2611 0.669345 60.5278 0.936012C60.7944 1.19201 60.9278 1.51734 60.9278 1.91201ZM60.6558 4.28001V13H58.3997V4.28001H60.6558ZM71.1286 8.44001C71.1286 8.70668 71.102 9.03734 71.0486 9.43201H64.5046C64.8246 10.6693 65.6726 11.288 67.0486 11.288C68.062 11.288 69.0006 10.9947 69.8646 10.408L70.7606 11.992C69.6513 12.792 68.382 13.192 66.9526 13.192C65.4273 13.192 64.254 12.7493 63.4326 11.864C62.622 10.9893 62.2166 9.91201 62.2166 8.63201C62.2166 7.29868 62.638 6.20534 63.4806 5.35201C64.3233 4.48801 65.4166 4.05601 66.7606 4.05601C68.03 4.05601 69.0753 4.45068 69.8966 5.24001C70.718 6.02934 71.1286 7.09601 71.1286 8.44001ZM66.7606 5.92801C66.1953 5.92801 65.71 6.09334 65.3046 6.42401C64.91 6.74401 64.6433 7.18668 64.5046 7.75201H68.9366C68.83 7.18668 68.5846 6.74401 68.2006 6.42401C67.8166 6.09334 67.3366 5.92801 66.7606 5.92801ZM74.9363 13H72.6803V4.28001H74.8883V5.49601C75.1229 5.05868 75.4856 4.70668 75.9763 4.44001C76.4669 4.17334 77.0163 4.04001 77.6243 4.04001C78.5736 4.04001 79.3789 4.35468 80.0403 4.98401C80.7016 5.61334 81.0323 6.50934 81.0323 7.67201V13H78.7763V8.28001C78.7763 7.59734 78.6109 7.06934 78.2803 6.69601C77.9496 6.31201 77.5016 6.12001 76.9363 6.12001C76.3389 6.12001 75.8536 6.32801 75.4803 6.74401C75.1176 7.14934 74.9363 7.67734 74.9363 8.32801V13ZM87.1215 13.192C85.7775 13.192 84.6682 12.7653 83.7935 11.912C82.9295 11.0693 82.4975 9.97601 82.4975 8.63201C82.4975 7.28801 82.9348 6.19468 83.8095 5.35201C84.6948 4.48801 85.8202 4.05601 87.1855 4.05601C88.0815 4.05601 88.8922 4.26934 89.6175 4.69601C90.3535 5.12268 90.8975 5.72001 91.2495 6.48801L89.4415 7.48001C88.9082 6.59468 88.1668 6.15201 87.2175 6.15201C86.4922 6.15201 85.9002 6.39201 85.4415 6.87201C84.9722 7.34134 84.7375 7.92801 84.7375 8.63201C84.7375 9.35734 84.9668 9.95468 85.4255 10.424C85.8948 10.8933 86.4762 11.128 87.1695 11.128C87.6282 11.128 88.0655 11.0053 88.4815 10.76C88.8975 10.5147 89.2015 10.2 89.3935 9.81601L91.2175 10.888C90.8442 11.592 90.2895 12.152 89.5535 12.568C88.8282 12.984 88.0175 13.192 87.1215 13.192ZM101.035 8.44001C101.035 8.70668 101.008 9.03734 100.955 9.43201H94.4109C94.7309 10.6693 95.5789 11.288 96.9549 11.288C97.9682 11.288 98.9069 10.9947 99.7709 10.408L100.667 11.992C99.5575 12.792 98.2882 13.192 96.8589 13.192C95.3335 13.192 94.1602 12.7493 93.3389 11.864C92.5282 10.9893 92.1229 9.91201 92.1229 8.63201C92.1229 7.29868 92.5442 6.20534 93.3869 5.35201C94.2295 4.48801 95.3229 4.05601 96.6669 4.05601C97.9362 4.05601 98.9815 4.45068 99.8029 5.24001C100.624 6.02934 101.035 7.09601 101.035 8.44001ZM96.6669 5.92801C96.1015 5.92801 95.6162 6.09334 95.2109 6.42401C94.8162 6.74401 94.5495 7.18668 94.4109 7.75201H98.8429C98.7362 7.18668 98.4909 6.74401 98.1069 6.42401C97.7229 6.09334 97.2429 5.92801 96.6669 5.92801ZM44.016 33H42.016L38.096 21.176H40.688L43.072 29.128L45.76 21.176H47.264L50 29.128L52.352 21.176H54.944L51.04 33H49.04L46.528 25.256L44.016 33ZM58.6309 21.912C58.6309 22.3067 58.4975 22.6373 58.2309 22.904C57.9642 23.1707 57.6335 23.304 57.2389 23.304C56.8442 23.304 56.5135 23.1707 56.2469 22.904C55.9802 22.6373 55.8469 22.3067 55.8469 21.912C55.8469 21.5173 55.9802 21.192 56.2469 20.936C56.5135 20.6693 56.8442 20.536 57.2389 20.536C57.6335 20.536 57.9642 20.6693 58.2309 20.936C58.4975 21.192 58.6309 21.5173 58.6309 21.912ZM58.3589 24.28V33H56.1029V24.28H58.3589ZM67.2478 25.816L62.9598 31.128H67.4078V33H59.8558V31.464L64.2238 26.168H60.0798V24.296H67.2478V25.816ZM75.4765 25.32V24.28H77.6205V33H75.4765V31.992C74.7298 32.8027 73.8018 33.208 72.6925 33.208C71.4338 33.208 70.3992 32.7707 69.5885 31.896C68.7778 31.0213 68.3725 29.9227 68.3725 28.6C68.3725 27.288 68.7832 26.2053 69.6045 25.352C70.4258 24.488 71.4552 24.056 72.6925 24.056C73.7805 24.056 74.7085 24.4773 75.4765 25.32ZM75.5085 28.632C75.5085 27.9493 75.2738 27.3573 74.8045 26.856C74.3458 26.3653 73.7645 26.12 73.0605 26.12C72.3458 26.12 71.7592 26.3653 71.3005 26.856C70.8525 27.3467 70.6285 27.9387 70.6285 28.632C70.6285 29.336 70.8578 29.9333 71.3165 30.424C71.7752 30.9147 72.3565 31.16 73.0605 31.16C73.7645 31.16 74.3458 30.9147 74.8045 30.424C75.2738 29.9227 75.5085 29.3253 75.5085 28.632ZM81.905 33H79.649V24.28H81.809V25.448C82.3317 24.5093 83.1317 24.04 84.209 24.04C84.561 24.04 84.913 24.104 85.265 24.232L85.073 26.392C84.689 26.2747 84.3423 26.216 84.033 26.216C83.3717 26.216 82.849 26.44 82.465 26.888C82.0917 27.3253 81.905 27.9813 81.905 28.856V33ZM92.5985 25.288V20.84H94.8545V33H92.6465V31.928C91.9425 32.7813 91.0412 33.208 89.9425 33.208C88.6945 33.208 87.6652 32.776 86.8545 31.912C86.0332 31.0267 85.6225 29.9333 85.6225 28.632C85.6225 27.3413 86.0332 26.2533 86.8545 25.368C87.6865 24.4933 88.7158 24.056 89.9425 24.056C90.9878 24.056 91.8732 24.4667 92.5985 25.288ZM92.7105 28.632C92.7105 27.928 92.4865 27.336 92.0385 26.856C91.5905 26.3653 91.0092 26.12 90.2945 26.12C89.5798 26.12 88.9932 26.3653 88.5345 26.856C88.0865 27.336 87.8625 27.928 87.8625 28.632C87.8625 29.3467 88.0865 29.9493 88.5345 30.44C88.9932 30.92 89.5798 31.16 90.2945 31.16C91.0092 31.16 91.5905 30.92 92.0385 30.44C92.4865 29.9493 92.7105 29.3467 92.7105 28.632ZM99.811 33.224C98.2963 33.224 97.0963 32.664 96.211 31.544L97.411 30.12C97.7203 30.4933 98.0883 30.792 98.515 31.016C98.9523 31.2293 99.3897 31.336 99.827 31.336C100.168 31.336 100.451 31.256 100.675 31.096C100.91 30.936 101.027 30.7333 101.027 30.488C101.027 30.1787 100.819 29.928 100.403 29.736C100.275 29.6827 99.9283 29.5493 99.363 29.336C98.8617 29.1547 98.4883 29 98.243 28.872C97.2403 28.392 96.739 27.64 96.739 26.616C96.739 25.8587 97.0377 25.2293 97.635 24.728C98.2217 24.2373 99.011 23.992 100.003 23.992C101.24 23.992 102.259 24.408 103.059 25.24L101.939 26.696C101.331 26.12 100.664 25.832 99.939 25.832C99.651 25.832 99.411 25.9067 99.219 26.056C99.0377 26.1947 98.947 26.3653 98.947 26.568C98.947 26.9307 99.203 27.1973 99.715 27.368C100.856 27.7947 101.555 28.0773 101.811 28.216C102.792 28.728 103.283 29.464 103.283 30.424C103.283 31.2453 102.963 31.9173 102.323 32.44C101.704 32.9627 100.867 33.224 99.811 33.224Z" fill="#212529"/>
<mask id="mask0_153_3088" style="mask-type:luminance" maskUnits="userSpaceOnUse" x="0" y="0" width="34" height="34">
<path d="M34 0H0V34H34V0Z" fill="white"/>
</mask>
<g mask="url(#mask0_153_3088)">
<path fill-rule="evenodd" clip-rule="evenodd" d="M17 34C26.3889 34 34 26.3888 34 17C34 7.61115 26.3889 0 17 0C7.61115 0 0 7.61115 0 17C0 26.3888 7.61115 34 17 34ZM19.6239 13.1347C21.073 11.6855 21.073 9.33602 19.6239 7.88686C18.1747 6.43771 15.8253 6.43771 14.3761 7.88686C12.927 9.33602 12.927 11.6855 14.3761 13.1347L17 15.7585L19.6239 13.1347ZM20.8653 19.6239C22.3145 21.0731 24.664 21.0731 26.1132 19.6239C27.5622 18.1747 27.5622 15.8253 26.1132 14.3761C24.664 12.927 22.3145 12.927 20.8653 14.3761L18.2415 17L20.8653 19.6239ZM19.6239 26.1131C21.073 24.664 21.073 22.3145 19.6239 20.8653L17 18.2415L14.3761 20.8653C12.927 22.3145 12.927 24.664 14.3761 26.1131C15.8253 27.5623 18.1747 27.5623 19.6239 26.1131ZM7.88683 19.6239C6.43772 18.1747 6.43772 15.8253 7.88683 14.3761C9.33602 12.927 11.6855 12.927 13.1347 14.3761L15.7585 17L13.1347 19.6239C11.6855 21.0731 9.33602 21.0731 7.88683 19.6239Z" fill="#FFC107"/>
</g>
</svg>
