<?xml version="1.0" encoding="utf-8"?>
<!-- Generator: Adobe Illustrator 25.3.0, SVG Export Plug-In . SVG Version: 6.00 Build 0)  -->
<svg version="1.1" id="Layer_1" xmlns="http://www.w3.org/2000/svg" xmlns:xlink="http://www.w3.org/1999/xlink" x="0px" y="0px"
	 viewBox="0 0 106 34" style="enable-background:new 0 0 106 34;" xml:space="preserve">
<style type="text/css">
	.st0{fill:#212529;}
	.st1{fill:#FFFFFF;filter:url(#Adobe_OpacityMaskFilter);}
	.st2{mask:url(#mask0_153_3088_1_);}
	.st3{fill-rule:evenodd;clip-rule:evenodd;fill:#FFC107;}
</style>
<path class="st0" d="M42.78,13.19c-0.93,0-1.79-0.19-2.58-0.58s-1.42-0.93-1.9-1.63l1.36-1.65c0.79,1.1,1.83,1.65,3.14,1.65
	c0.49,0,0.9-0.12,1.22-0.35s0.48-0.54,0.48-0.91c0-0.49-0.36-0.9-1.07-1.23c-0.09-0.04-0.47-0.2-1.17-0.46
	c-0.54-0.21-1.01-0.43-1.39-0.64c-1.25-0.71-1.87-1.7-1.87-2.94c0-0.99,0.37-1.81,1.12-2.46c0.76-0.66,1.73-0.99,2.91-0.99
	c1.54,0,2.83,0.53,3.89,1.6l-1.26,1.73c-0.32-0.34-0.72-0.61-1.2-0.8c-0.47-0.2-0.93-0.3-1.39-0.3c-0.47,0-0.84,0.11-1.12,0.32
	c-0.27,0.2-0.4,0.47-0.4,0.82c0,0.46,0.32,0.85,0.96,1.17l1.17,0.51c0.66,0.28,1.14,0.49,1.44,0.62c1.34,0.65,2.02,1.63,2.02,2.94
	c0,1.06-0.4,1.92-1.2,2.59C45.12,12.86,44.07,13.19,42.78,13.19z M52.89,13.19c-1.34,0-2.45-0.43-3.33-1.28
	c-0.86-0.84-1.3-1.94-1.3-3.28s0.44-2.44,1.31-3.28c0.89-0.86,2.01-1.3,3.38-1.3c0.9,0,1.71,0.21,2.43,0.64
	c0.74,0.43,1.28,1.02,1.63,1.79l-1.81,0.99c-0.53-0.89-1.27-1.33-2.22-1.33c-0.73,0-1.32,0.24-1.78,0.72
	c-0.47,0.47-0.7,1.06-0.7,1.76c0,0.73,0.23,1.32,0.69,1.79c0.47,0.47,1.05,0.7,1.74,0.7c0.46,0,0.9-0.12,1.31-0.37
	c0.42-0.25,0.72-0.56,0.91-0.94l1.82,1.07c-0.37,0.7-0.93,1.26-1.66,1.68C54.59,12.98,53.78,13.19,52.89,13.19z M60.93,1.91
	c0,0.39-0.13,0.73-0.4,0.99c-0.27,0.27-0.6,0.4-0.99,0.4c-0.39,0-0.73-0.13-0.99-0.4c-0.27-0.27-0.4-0.6-0.4-0.99
	s0.13-0.72,0.4-0.98c0.27-0.27,0.6-0.4,0.99-0.4c0.39,0,0.73,0.13,0.99,0.4C60.79,1.19,60.93,1.52,60.93,1.91z M60.66,4.28V13H58.4
	V4.28H60.66z M71.13,8.44c0,0.27-0.03,0.6-0.08,0.99H64.5c0.32,1.24,1.17,1.86,2.54,1.86c1.01,0,1.95-0.29,2.82-0.88l0.9,1.58
	c-1.11,0.8-2.38,1.2-3.81,1.2c-1.53,0-2.7-0.44-3.52-1.33c-0.81-0.87-1.22-1.95-1.22-3.23c0-1.33,0.42-2.43,1.26-3.28
	c0.84-0.86,1.94-1.3,3.28-1.3c1.27,0,2.31,0.39,3.14,1.18C70.72,6.03,71.13,7.1,71.13,8.44z M66.76,5.93c-0.57,0-1.05,0.17-1.46,0.5
	c-0.39,0.32-0.66,0.76-0.8,1.33h4.43c-0.11-0.57-0.35-1.01-0.74-1.33C67.82,6.09,67.34,5.93,66.76,5.93z M74.94,13h-2.26V4.28h2.21
	V5.5c0.23-0.44,0.6-0.79,1.09-1.06c0.49-0.27,1.04-0.4,1.65-0.4c0.95,0,1.75,0.31,2.42,0.94c0.66,0.63,0.99,1.53,0.99,2.69V13h-2.26
	V8.28c0-0.68-0.17-1.21-0.5-1.58c-0.33-0.38-0.78-0.58-1.34-0.58c-0.6,0-1.08,0.21-1.46,0.62c-0.36,0.41-0.54,0.93-0.54,1.58V13z
	 M87.12,13.19c-1.34,0-2.45-0.43-3.33-1.28c-0.86-0.84-1.3-1.94-1.3-3.28s0.44-2.44,1.31-3.28c0.89-0.86,2.01-1.3,3.38-1.3
	c0.9,0,1.71,0.21,2.43,0.64c0.74,0.43,1.28,1.02,1.63,1.79l-1.81,0.99c-0.53-0.89-1.27-1.33-2.22-1.33c-0.73,0-1.32,0.24-1.78,0.72
	c-0.47,0.47-0.7,1.06-0.7,1.76c0,0.73,0.23,1.32,0.69,1.79c0.47,0.47,1.05,0.7,1.74,0.7c0.46,0,0.9-0.12,1.31-0.37
	c0.42-0.25,0.72-0.56,0.91-0.94l1.82,1.07c-0.37,0.7-0.93,1.26-1.66,1.68C88.83,12.98,88.02,13.19,87.12,13.19z M101.04,8.44
	c0,0.27-0.03,0.6-0.08,0.99h-6.54c0.32,1.24,1.17,1.86,2.54,1.86c1.01,0,1.95-0.29,2.82-0.88l0.9,1.58c-1.11,0.8-2.38,1.2-3.81,1.2
	c-1.53,0-2.7-0.44-3.52-1.33c-0.81-0.87-1.22-1.95-1.22-3.23c0-1.33,0.42-2.43,1.26-3.28c0.84-0.86,1.94-1.3,3.28-1.3
	c1.27,0,2.31,0.39,3.14,1.18C100.62,6.03,101.04,7.1,101.04,8.44z M96.67,5.93c-0.57,0-1.05,0.17-1.46,0.5
	c-0.39,0.32-0.66,0.76-0.8,1.33h4.43c-0.11-0.57-0.35-1.01-0.74-1.33C97.72,6.09,97.24,5.93,96.67,5.93z M44.02,33h-2L38.1,21.18
	h2.59l2.38,7.95l2.69-7.95h1.5L50,29.13l2.35-7.95h2.59L51.04,33h-2l-2.51-7.74L44.02,33z M58.63,21.91c0,0.39-0.13,0.73-0.4,0.99
	c-0.27,0.27-0.6,0.4-0.99,0.4c-0.39,0-0.73-0.13-0.99-0.4c-0.27-0.27-0.4-0.6-0.4-0.99c0-0.39,0.13-0.72,0.4-0.98
	c0.27-0.27,0.6-0.4,0.99-0.4c0.39,0,0.73,0.13,0.99,0.4C58.5,21.19,58.63,21.52,58.63,21.91z M58.36,24.28V33H56.1v-8.72H58.36z
	 M67.25,25.82l-4.29,5.31h4.45V33h-7.55v-1.54l4.37-5.3h-4.14V24.3h7.17V25.82z M75.48,25.32v-1.04h2.14V33h-2.14v-1.01
	c-0.75,0.81-1.67,1.22-2.78,1.22c-1.26,0-2.29-0.44-3.1-1.31c-0.81-0.87-1.22-1.97-1.22-3.3c0-1.31,0.41-2.39,1.23-3.25
	c0.82-0.86,1.85-1.3,3.09-1.3C73.78,24.06,74.71,24.48,75.48,25.32z M75.51,28.63c0-0.68-0.23-1.27-0.7-1.78
	c-0.46-0.49-1.04-0.74-1.74-0.74c-0.71,0-1.3,0.25-1.76,0.74c-0.45,0.49-0.67,1.08-0.67,1.78c0,0.7,0.23,1.3,0.69,1.79
	c0.46,0.49,1.04,0.74,1.74,0.74s1.29-0.25,1.74-0.74C75.27,29.92,75.51,29.33,75.51,28.63z M81.9,33h-2.26v-8.72h2.16v1.17
	c0.52-0.94,1.32-1.41,2.4-1.41c0.35,0,0.7,0.06,1.06,0.19l-0.19,2.16c-0.38-0.12-0.73-0.18-1.04-0.18c-0.66,0-1.18,0.22-1.57,0.67
	c-0.37,0.44-0.56,1.09-0.56,1.97V33z M92.6,25.29v-4.45h2.26V33h-2.21v-1.07c-0.7,0.85-1.61,1.28-2.7,1.28
	c-1.25,0-2.28-0.43-3.09-1.3c-0.82-0.89-1.23-1.98-1.23-3.28c0-1.29,0.41-2.38,1.23-3.26c0.83-0.87,1.86-1.31,3.09-1.31
	C90.99,24.06,91.87,24.47,92.6,25.29z M92.71,28.63c0-0.7-0.22-1.3-0.67-1.78c-0.45-0.49-1.03-0.74-1.74-0.74s-1.3,0.25-1.76,0.74
	c-0.45,0.48-0.67,1.07-0.67,1.78c0,0.71,0.22,1.32,0.67,1.81c0.46,0.48,1.05,0.72,1.76,0.72s1.3-0.24,1.74-0.72
	C92.49,29.95,92.71,29.35,92.71,28.63z M99.81,33.22c-1.51,0-2.71-0.56-3.6-1.68l1.2-1.42c0.31,0.37,0.68,0.67,1.1,0.9
	c0.44,0.21,0.87,0.32,1.31,0.32c0.34,0,0.62-0.08,0.85-0.24c0.24-0.16,0.35-0.36,0.35-0.61c0-0.31-0.21-0.56-0.62-0.75
	c-0.13-0.05-0.47-0.19-1.04-0.4c-0.5-0.18-0.87-0.34-1.12-0.46c-1-0.48-1.5-1.23-1.5-2.26c0-0.76,0.3-1.39,0.9-1.89
	c0.59-0.49,1.38-0.74,2.37-0.74c1.24,0,2.26,0.42,3.06,1.25l-1.12,1.46c-0.61-0.58-1.28-0.86-2-0.86c-0.29,0-0.53,0.07-0.72,0.22
	c-0.18,0.14-0.27,0.31-0.27,0.51c0,0.36,0.26,0.63,0.77,0.8c1.14,0.43,1.84,0.71,2.1,0.85c0.98,0.51,1.47,1.25,1.47,2.21
	c0,0.82-0.32,1.49-0.96,2.02C101.7,32.96,100.87,33.22,99.81,33.22z"/>
<defs>
	<filter id="Adobe_OpacityMaskFilter" filterUnits="userSpaceOnUse" x="0.78" y="0.78" width="32.45" height="32.45">
		<feColorMatrix  type="matrix" values="1 0 0 0 0  0 1 0 0 0  0 0 1 0 0  0 0 0 1 0"/>
	</filter>
</defs>
<mask maskUnits="userSpaceOnUse" x="0.78" y="0.78" width="32.45" height="32.45" id="mask0_153_3088_1_">
	<path class="st1" d="M33.22,0.78H0.78v32.45h32.45V0.78z"/>
</mask>
<g class="st2">
	<path class="st3" d="M17,33.22c8.96,0,16.22-7.26,16.22-16.22c0-8.96-7.26-16.22-16.22-16.22C8.04,0.78,0.78,8.04,0.78,17
		C0.78,25.96,8.04,33.22,17,33.22z M19.5,13.31c1.38-1.38,1.38-3.63,0-5.01c-1.38-1.38-3.63-1.38-5.01,0
		c-1.38,1.38-1.38,3.63,0,5.01l2.5,2.5L19.5,13.31z M20.69,19.5c1.38,1.38,3.63,1.38,5.01,0c1.38-1.38,1.38-3.63,0-5.01
		c-1.38-1.38-3.63-1.38-5.01,0l-2.5,2.5L20.69,19.5z M19.5,25.7c1.38-1.38,1.38-3.63,0-5.01l-2.5-2.5l-2.5,2.5
		c-1.38,1.38-1.38,3.63,0,5.01C15.88,27.08,18.12,27.08,19.5,25.7z M8.3,19.5c-1.38-1.38-1.38-3.63,0-5.01
		c1.38-1.38,3.63-1.38,5.01,0l2.5,2.5l-2.5,2.5C11.93,20.89,9.69,20.89,8.3,19.5z"/>
</g>
</svg>
